<?xml version="1.0" encoding="iso-8859-1"?>
<!-- Generator: Adobe Illustrator 19.0.0, SVG Export Plug-In . SVG Version: 6.00 Build 0)  -->
<svg version="1.1" id="Capa_1" xmlns="http://www.w3.org/2000/svg" xmlns:xlink="http://www.w3.org/1999/xlink" x="0px" y="0px"
	 viewBox="0 0 512 512" style="enable-background:new 0 0 512 512;" xml:space="preserve">
<g>
	<g>
		<path d="M510.798,221.405l-2.285-17.394h-35.561l-2.724,16.798c-12.139,74.859-76.589,129.193-153.248,129.193
			c-85.462,0-154.99-69.529-154.99-154.99c0-76.498,54.334-140.832,129.193-152.97l16.798-2.724V3.406l-17.476-2.223
			c-9.626-1.224-20.752-1.193-30.583-1.167c-1.343,0.004-2.66,0.007-3.938,0.007c-68.376,0-132.661,26.625-181.009,74.975
			C26.627,123.349,0,187.631,0,256.007s26.626,132.66,74.975,181.009c48.349,48.349,112.633,74.975,181.009,74.975
			s132.661-26.625,181.009-74.975c48.348-48.35,74.975-112.633,74.975-181.009c0-1.622,0.008-3.275,0.016-4.945
			C512.027,241.721,512.075,231.134,510.798,221.405z M255.984,471.994c-119.096,0-215.987-96.891-215.987-215.987
			c0-93.617,59.879-173.518,143.343-203.418c-5.19,4.876-10.125,10.052-14.782,15.515c-30.029,35.226-46.566,80.296-46.566,126.907
			c0,107.516,87.472,194.988,194.988,194.988c46.621,0,91.733-16.532,127.029-46.552c5.378-4.574,10.476-9.414,15.287-14.501
			C429.315,412.257,349.493,471.994,255.984,471.994z"/>
	</g>
</g>
<g>
</g>
<g>
</g>
<g>
</g>
<g>
</g>
<g>
</g>
<g>
</g>
<g>
</g>
<g>
</g>
<g>
</g>
<g>
</g>
<g>
</g>
<g>
</g>
<g>
</g>
<g>
</g>
<g>
</g>
</svg>
