<?xml version="1.0" encoding="iso-8859-1"?>
<!-- Generator: Adobe Illustrator 19.0.0, SVG Export Plug-In . SVG Version: 6.00 Build 0)  -->
<svg version="1.1" id="Capa_1" xmlns="http://www.w3.org/2000/svg" xmlns:xlink="http://www.w3.org/1999/xlink" x="0px" y="0px"
	 viewBox="0 0 512 512" style="enable-background:new 0 0 512 512;" xml:space="preserve">
<g>
	<g>
		<path d="M452,159h-51V0H111v159H60c-33.084,0-60,26.916-60,60v162c0,33.084,26.916,60,60,60h51v71h290v-71h51
			c33.084,0,60-26.916,60-60V219C512,185.916,485.084,159,452,159z M151,40h210v119H151V40z M111,401H60c-11.028,0-20-8.972-20-20
			v-42h71V401z M361,472H151V339h210V472z M472,381c0,11.028-8.972,20-20,20h-51v-62h71V381z M472,299H40v-80
			c0-11.028,8.972-20,20-20h392c11.028,0,20,8.972,20,20V299z"/>
	</g>
</g>
<g>
	<g>
		<circle cx="421" cy="249" r="20"/>
	</g>
</g>
<g>
</g>
<g>
</g>
<g>
</g>
<g>
</g>
<g>
</g>
<g>
</g>
<g>
</g>
<g>
</g>
<g>
</g>
<g>
</g>
<g>
</g>
<g>
</g>
<g>
</g>
<g>
</g>
<g>
</g>
</svg>
