<?xml version="1.0" encoding="iso-8859-1"?>
<!-- Generator: Adobe Illustrator 19.0.0, SVG Export Plug-In . SVG Version: 6.00 Build 0)  -->
<svg version="1.1" id="Capa_1" xmlns="http://www.w3.org/2000/svg" xmlns:xlink="http://www.w3.org/1999/xlink" x="0px" y="0px"
	 viewBox="0 0 512 512" style="enable-background:new 0 0 512 512;" xml:space="preserve">
<g>
	<g>
		<path d="M256,100c-86.019,0-156,69.981-156,156s69.981,156,156,156s156-69.981,156-156S342.019,100,256,100z M256,372
			c-63.963,0-116-52.038-116-116s52.037-116,116-116s116,52.038,116,116S319.963,372,256,372z"/>
	</g>
</g>
<g>
	<g>
		<rect x="452" y="236" width="60" height="40"/>
	</g>
</g>
<g>
	<g>
		<rect x="236" width="40" height="60"/>
	</g>
</g>
<g>
	<g>
		<rect y="236" width="60" height="40"/>
	</g>
</g>
<g>
	<g>
		<rect x="236" y="452" width="40" height="60"/>
	</g>
</g>
<g>
	<g>
		
			<rect x="349.139" y="421.645" transform="matrix(0.8657 -0.5005 0.5005 0.8657 -176.4898 245.4025)" width="39.998" height="59.998"/>
	</g>
</g>
<g>
	<g>
		
			<rect x="428.607" y="344.199" transform="matrix(0.5231 -0.8523 0.8523 0.5231 -104.9842 560.767)" width="39.998" height="59.996"/>
	</g>
</g>
<g>
	<g>
		<rect x="421.724" y="122.99" transform="matrix(0.866 -0.5 0.5 0.866 -10.974 245.024)" width="59.998" height="39.999"/>
	</g>
</g>
<g>
	<g>
		
			<rect x="344.011" y="43.251" transform="matrix(0.5221 -0.8529 0.8529 0.5221 124.7966 349.2187)" width="60.001" height="40.001"/>
	</g>
</g>
<g>
	<g>
		<rect x="122.988" y="30.29" transform="matrix(0.866 -0.5001 0.5001 0.866 -10.9865 79.5868)" width="40.001" height="60.002"/>
	</g>
</g>
<g>
	<g>
		
			<rect x="43.122" y="108.205" transform="matrix(0.5212 -0.8534 0.8534 0.5212 -87.7256 120.0398)" width="39.999" height="59.998"/>
	</g>
</g>
<g>
	<g>
		<rect x="30.278" y="348.988" transform="matrix(0.866 -0.5 0.5 0.866 -176.4219 79.5767)" width="59.999" height="39.999"/>
	</g>
</g>
<g>
	<g>
		
			<rect x="107.612" y="428.54" transform="matrix(0.5238 -0.8519 0.8519 0.5238 -316.5574 330.8342)" width="60.003" height="40.002"/>
	</g>
</g>
<g>
</g>
<g>
</g>
<g>
</g>
<g>
</g>
<g>
</g>
<g>
</g>
<g>
</g>
<g>
</g>
<g>
</g>
<g>
</g>
<g>
</g>
<g>
</g>
<g>
</g>
<g>
</g>
<g>
</g>
</svg>
